<svg
  width="16"
  height="16"
  viewBox="0 0 16 16"
  fill="none"
  xmlns="http://www.w3.org/2000/svg"
>
  <g clip-path="url(#clip0_1215_55147)">
    <path
      fill-rule="evenodd"
      clip-rule="evenodd"
      d="M8.00008 1.99999C4.68637 1.99999 2.00008 4.68628 2.00008 7.99999C2.00008 11.3137 4.68637 14 8.00008 14C11.3138 14 14.0001 11.3137 14.0001 7.99999C14.0001 4.68628 11.3138 1.99999 8.00008 1.99999ZM0.666748 7.99999C0.666748 3.9499 3.94999 0.666656 8.00008 0.666656C12.0502 0.666656 15.3334 3.9499 15.3334 7.99999C15.3334 12.0501 12.0502 15.3333 8.00008 15.3333C3.94999 15.3333 0.666748 12.0501 0.666748 7.99999ZM8.00008 4.66666C8.36827 4.66666 8.66675 4.96513 8.66675 5.33332V7.99999C8.66675 8.36818 8.36827 8.66666 8.00008 8.66666C7.63189 8.66666 7.33341 8.36818 7.33341 7.99999V5.33332C7.33341 4.96513 7.63189 4.66666 8.00008 4.66666ZM7.33341 10.6667C7.33341 10.2985 7.63189 9.99999 8.00008 9.99999H8.00675C8.37494 9.99999 8.67342 10.2985 8.67342 10.6667C8.67342 11.0348 8.37494 11.3333 8.00675 11.3333H8.00008C7.63189 11.3333 7.33341 11.0348 7.33341 10.6667Z"
      fill="#F04438"
    />
  </g>
  <defs>
    <clipPath id="clip0_1215_55147">
      <rect width="16" height="16" fill="white" />
    </clipPath>
  </defs>
</svg>
